<?xml version="1.0" encoding="UTF-8" standalone="no"?>
<!-- Created with Inkscape (http://www.inkscape.org/) -->

<svg
   width="600"
   height="600"
   viewBox="0 0 158.75 158.75"
   version="1.1"
   id="svg1"
   xml:space="preserve"
   xmlns="http://www.w3.org/2000/svg"
   xmlns:svg="http://www.w3.org/2000/svg"><defs
     id="defs1" /><g
     id="layer1"><g
       id="g14"
       transform="matrix(3.4045322,0,0,3.1900074,-183.9801,-185.21118)"
       style="stroke-width:0.303442"><path
         id="path14"
         style="fill:#7ba951;fill-opacity:1;stroke:none;stroke-width:0.0802854"
         d="m 73.220422,59.432592 c -4.603407,0.02837 -9.795103,0.542141 -14.154175,5.936588 -4.118199,5.096363 -3.81615,6.405598 -3.672127,18.776115 0.02821,2.423129 0.04332,5.181426 0.06304,7.908561 h 12.285038 v 0.126608 c 0,0 3.76e-4,-4.32906 0.117306,-12.799219 0.03128,-2.266138 -0.117481,-3.488478 1.58905,-5.545915 1.604616,-1.934565 4.194208,-2.065076 7.291545,-2.060856 3.234886,0.0044 6.449376,0 8.528161,0 V 59.437759 c 0,0 -4.536775,0.02608 -10.115144,0 -0.629476,-0.0029 -1.275069,-0.0092 -1.932699,-0.0052 z" /><path
         id="path14-6"
         style="fill:#0c385d;fill-opacity:1;stroke:none;stroke-width:0.0802854"
         d="m 81.491145,106.4519 c 4.603402,-0.0291 9.795012,-0.54377 14.153182,-5.93896 4.117347,-5.09705 3.815079,-6.406234 3.668988,-18.776727 -0.02862,-2.423124 -0.04419,-5.181418 -0.06436,-7.908555 l -12.285038,0.0021 -2.1e-5,-0.1266 c 0,0 3.48e-4,4.32906 -0.115166,12.799235 -0.0309,2.266143 0.118064,3.488458 -1.588123,5.54618 -1.604293,1.934833 -4.193863,2.065777 -7.291201,2.062075 -3.234886,-0.0039 -6.449375,0.0011 -8.52816,0.0014 l 0.0021,12.336722 c 0,0 4.53677,-0.0268 10.115144,-0.002 0.629476,0.003 1.27507,0.009 1.9327,0.005 z" /><rect
         style="fill:#057098;fill-opacity:1;stroke:none;stroke-width:0.0802854"
         id="rect14"
         width="12.001866"
         height="12.15809"
         x="55.598747"
         y="94.170525" /><rect
         style="fill:#057098;fill-opacity:1;stroke:none;stroke-width:0.0802854"
         id="rect14-6"
         width="12.001866"
         height="12.15809"
         x="87.105499"
         y="59.553947" /></g></g></svg>
